# xmcd
#
# Track frame offsets:
#	150
#	18166
#	33467
#	47683
#	64608
#	84951
#	113211
#	128359
#	148596
#	166765
#	185892
#
# Disc length: 2688 seconds
# Revision: 0
# Processed by: cddbd v1.5.2PL0 Copyright (c) Steve Scherf et al.
# Submitted via: dBpowerAMP V12.0
#
DISCID=860a7e0b
DTITLE=Five Finger Death Punch - The Way of the Fist (Iron Fist Edition)
DYEAR=2010
DGENRE=Metal
TTITLE0=A New Level
TTITLE1=From Out of Nowhere
TTITLE2=Succubus (Demo)
TTITLE3=Salvation (Live)
TTITLE4=The Way of the Fist (Live)
TTITLE5=White Knuckles (Live)
TTITLE6=Salvation (Instrumental)
TTITLE7=The Bleeding (Instrumental)
TTITLE8=The Way of the Fist (Instrumental)
TTITLE9=Devil's Own (Instrumental)
TTITLE10=Never Enough (Instrumental)
EXTD=
EXTT0=
EXTT1=
EXTT2=
EXTT3=
EXTT4=
EXTT5=
EXTT6=
EXTT7=
EXTT8=
EXTT9=
EXTT10=
PLAYORDER=
